# Blender v2.81 (sub 16) OBJ File: 'shiftcube.blend'
# www.blender.org
o Cube
v 1.329590 1.329590 -1.329590
v 1.329590 -1.329590 -1.329590
v -1.329591 -1.329590 -1.329590
v -1.329590 1.329591 -1.329590
v 1.329591 1.329590 1.329590
v 1.329590 -1.329591 1.329590
v -1.329591 -1.329590 1.329590
v -1.329590 1.329590 1.329590
v 1.167865 0.583932 -1.167865
v 1.094640 -0.000000 -1.094640
v 1.167865 -0.583932 -1.167865
v 0.583933 1.167865 -1.167865
v 0.000000 1.094640 -1.094640
v -0.583932 1.167865 -1.167865
v 1.167865 1.167864 -0.583932
v 1.094640 1.094640 0.000000
v 1.167865 1.167864 0.583932
v 0.583932 -1.167865 -1.167865
v -0.000000 -1.094640 -1.094640
v -0.583932 -1.167865 -1.167865
v 1.167865 -1.167865 -0.583932
v 1.094640 -1.094640 0.000000
v 1.167864 -1.167865 0.583932
v -1.167865 -0.583932 -1.167865
v -1.094640 0.000000 -1.094640
v -1.167865 0.583933 -1.167865
v -1.167865 -1.167865 -0.583932
v -1.094640 -1.094640 0.000000
v -1.167865 -1.167865 0.583932
v -1.167865 1.167865 -0.583932
v -1.094640 1.094640 0.000000
v -1.167865 1.167865 0.583932
v 1.167865 0.583932 1.167865
v 1.094640 -0.000001 1.094640
v 1.167864 -0.583933 1.167865
v 0.583933 1.167864 1.167865
v 0.000000 1.094640 1.094640
v -0.583932 1.167864 1.167865
v 0.583932 -1.167866 1.167865
v -0.000001 -1.094640 1.094640
v -0.583933 -1.167865 1.167865
v -1.167865 -0.583932 1.167865
v -1.094640 0.000000 1.094640
v -1.167865 0.583932 1.167865
v 0.448284 0.448284 -0.896567
v 0.377729 0.000000 -0.755458
v 0.448284 -0.448284 -0.896567
v 0.000000 0.377729 -0.755458
v 0.000000 0.000000 -0.564297
v 0.000000 -0.377729 -0.755458
v -0.448283 0.448284 -0.896567
v -0.377729 0.000000 -0.755458
v -0.448284 -0.448283 -0.896567
v 0.448283 0.448283 0.896567
v 0.000000 0.377729 0.755458
v -0.448284 0.448284 0.896567
v 0.377729 -0.000000 0.755458
v -0.000000 -0.000000 0.564297
v -0.377729 0.000000 0.755458
v 0.448283 -0.448284 0.896567
v -0.000000 -0.377729 0.755458
v -0.448284 -0.448284 0.896567
v 0.896567 0.448283 -0.448284
v 0.755458 0.377729 0.000000
v 0.896567 0.448283 0.448284
v 0.755458 -0.000000 -0.377729
v 0.564297 -0.000000 0.000000
v 0.755458 -0.000000 0.377729
v 0.896567 -0.448284 -0.448284
v 0.755458 -0.377729 0.000000
v 0.896567 -0.448284 0.448284
v 0.448283 -0.896567 -0.448284
v 0.377729 -0.755458 0.000000
v 0.448283 -0.896568 0.448284
v -0.000000 -0.755458 -0.377729
v -0.000000 -0.564297 0.000000
v -0.000000 -0.755458 0.377729
v -0.448284 -0.896567 -0.448284
v -0.377729 -0.755458 0.000000
v -0.448284 -0.896567 0.448284
v -0.896567 -0.448283 -0.448284
v -0.755458 -0.377729 0.000000
v -0.896568 -0.448283 0.448284
v -0.755458 0.000000 -0.377729
v -0.564297 0.000000 0.000000
v -0.755458 0.000000 0.377729
v -0.896567 0.448284 -0.448284
v -0.755458 0.377729 0.000000
v -0.896567 0.448284 0.448284
v 0.448284 0.896567 0.448284
v 0.377729 0.755458 -0.000000
v 0.448284 0.896567 -0.448284
v 0.000000 0.755458 0.377729
v 0.000000 0.564297 -0.000000
v 0.000000 0.755458 -0.377729
v -0.448283 0.896567 0.448284
v -0.377729 0.755458 0.000000
v -0.448283 0.896568 -0.448284
vn -0.2538 -0.2538 -0.9333
vn -0.4115 0.4115 -0.8132
vn 0.2538 -0.2538 -0.9333
vn 0.4115 0.4115 -0.8132
vn -0.1728 -0.1728 -0.9697
vn -0.3394 -0.0750 -0.9377
vn -0.4179 0.2123 -0.8833
vn -0.2894 0.2894 -0.9124
vn -0.2123 0.4179 -0.8833
vn 0.2123 0.4179 -0.8833
vn 0.2894 0.2894 -0.9124
vn 0.4179 0.2123 -0.8833
vn 0.3394 -0.0750 -0.9377
vn 0.1728 -0.1728 -0.9697
vn 0.0750 -0.3394 -0.9377
vn -0.0750 -0.3394 -0.9377
vn -0.2538 -0.2538 0.9333
vn 0.4115 -0.4115 0.8132
vn -0.2538 0.2538 0.9333
vn 0.4115 0.4115 0.8132
vn -0.1728 -0.1728 0.9697
vn -0.0750 -0.3394 0.9377
vn 0.2123 -0.4179 0.8833
vn 0.2894 -0.2894 0.9124
vn 0.4179 -0.2123 0.8833
vn 0.4179 0.2123 0.8833
vn 0.2894 0.2894 0.9124
vn 0.2123 0.4179 0.8833
vn -0.0750 0.3394 0.9377
vn -0.1728 0.1728 0.9697
vn -0.3394 0.0750 0.9377
vn -0.3394 -0.0750 0.9377
vn 0.9333 -0.2538 0.2538
vn 0.8132 -0.4115 -0.4115
vn 0.9333 0.2538 0.2538
vn 0.8132 0.4115 -0.4115
vn 0.9697 -0.1728 0.1728
vn 0.9377 -0.3394 0.0750
vn 0.8833 -0.4179 -0.2123
vn 0.9124 -0.2894 -0.2894
vn 0.8833 -0.2123 -0.4179
vn 0.8833 0.2123 -0.4179
vn 0.9124 0.2894 -0.2894
vn 0.8833 0.4179 -0.2123
vn 0.9377 0.3394 0.0750
vn 0.9697 0.1728 0.1728
vn 0.9377 0.0750 0.3394
vn 0.9377 -0.0750 0.3394
vn -0.2538 -0.9333 0.2538
vn -0.4115 -0.8132 -0.4115
vn 0.2538 -0.9333 0.2538
vn 0.4115 -0.8132 -0.4115
vn -0.1728 -0.9697 0.1728
vn -0.3394 -0.9377 0.0750
vn -0.4179 -0.8833 -0.2123
vn -0.2894 -0.9124 -0.2894
vn -0.2123 -0.8833 -0.4179
vn 0.2123 -0.8833 -0.4179
vn 0.2894 -0.9124 -0.2894
vn 0.4179 -0.8833 -0.2123
vn 0.3394 -0.9377 0.0750
vn 0.1728 -0.9697 0.1728
vn 0.0750 -0.9377 0.3394
vn -0.0750 -0.9377 0.3394
vn -0.9333 0.2538 0.2538
vn -0.8132 0.4115 -0.4115
vn -0.9333 -0.2538 0.2538
vn -0.8132 -0.4115 -0.4115
vn -0.9697 0.1728 0.1728
vn -0.9377 0.3394 0.0750
vn -0.8833 0.4179 -0.2123
vn -0.9124 0.2894 -0.2894
vn -0.8833 0.2123 -0.4179
vn -0.8833 -0.2123 -0.4179
vn -0.9124 -0.2894 -0.2894
vn -0.8833 -0.4179 -0.2123
vn -0.9377 -0.3394 0.0750
vn -0.9697 -0.1728 0.1728
vn -0.9377 -0.0750 0.3394
vn -0.9377 0.0750 0.3394
vn -0.2538 0.9333 -0.2538
vn -0.4115 0.8132 0.4115
vn 0.2538 0.9333 -0.2538
vn 0.4115 0.8132 0.4115
vn -0.1728 0.9697 -0.1728
vn -0.3394 0.9377 -0.0750
vn -0.4179 0.8833 0.2123
vn -0.2894 0.9124 0.2894
vn -0.2123 0.8833 0.4179
vn 0.2123 0.8833 0.4179
vn 0.2894 0.9124 0.2894
vn 0.4179 0.8833 0.2123
vn 0.3394 0.9377 -0.0750
vn 0.1728 0.9697 -0.1728
vn 0.0750 0.9377 -0.3394
vn -0.0750 0.9377 -0.3394
vn -0.4115 -0.4115 -0.8132
vn -0.2538 0.2538 -0.9333
vn 0.4115 -0.4115 -0.8132
vn 0.2538 0.2538 -0.9333
vn -0.2894 -0.2894 -0.9124
vn -0.4179 -0.2123 -0.8833
vn -0.3394 0.0750 -0.9377
vn -0.1728 0.1728 -0.9697
vn -0.0750 0.3394 -0.9377
vn 0.0750 0.3394 -0.9377
vn 0.1728 0.1728 -0.9697
vn 0.3394 0.0750 -0.9377
vn 0.4179 -0.2123 -0.8833
vn 0.2894 -0.2894 -0.9124
vn 0.2123 -0.4179 -0.8833
vn -0.2123 -0.4179 -0.8833
vn -0.4115 -0.4115 0.8132
vn 0.2538 -0.2538 0.9333
vn -0.4115 0.4115 0.8132
vn 0.2538 0.2538 0.9333
vn -0.2894 -0.2894 0.9124
vn -0.2123 -0.4179 0.8833
vn 0.0750 -0.3394 0.9377
vn 0.1728 -0.1728 0.9697
vn 0.3394 -0.0750 0.9377
vn 0.3394 0.0750 0.9377
vn 0.1728 0.1728 0.9697
vn 0.0750 0.3394 0.9377
vn -0.2123 0.4179 0.8833
vn -0.2894 0.2894 0.9124
vn -0.4179 0.2123 0.8833
vn -0.4179 -0.2123 0.8833
vn 0.8132 -0.4115 0.4115
vn 0.9333 -0.2538 -0.2538
vn 0.8132 0.4115 0.4115
vn 0.9333 0.2538 -0.2538
vn 0.9124 -0.2894 0.2894
vn 0.8833 -0.4179 0.2123
vn 0.9377 -0.3394 -0.0750
vn 0.9697 -0.1728 -0.1728
vn 0.9377 -0.0750 -0.3394
vn 0.9377 0.0750 -0.3394
vn 0.9697 0.1728 -0.1728
vn 0.9377 0.3394 -0.0750
vn 0.8833 0.4179 0.2123
vn 0.9124 0.2894 0.2894
vn 0.8833 0.2123 0.4179
vn 0.8833 -0.2123 0.4179
vn -0.4115 -0.8132 0.4115
vn -0.2538 -0.9333 -0.2538
vn 0.4115 -0.8132 0.4115
vn 0.2538 -0.9333 -0.2538
vn -0.2894 -0.9124 0.2894
vn -0.4179 -0.8833 0.2123
vn -0.3394 -0.9377 -0.0750
vn -0.1728 -0.9697 -0.1728
vn -0.0750 -0.9377 -0.3394
vn 0.0750 -0.9377 -0.3394
vn 0.1728 -0.9697 -0.1728
vn 0.3394 -0.9377 -0.0750
vn 0.4179 -0.8833 0.2123
vn 0.2894 -0.9124 0.2894
vn 0.2123 -0.8833 0.4179
vn -0.2123 -0.8833 0.4179
vn -0.8132 0.4115 0.4115
vn -0.9333 0.2538 -0.2538
vn -0.8132 -0.4115 0.4115
vn -0.9333 -0.2538 -0.2538
vn -0.9124 0.2894 0.2894
vn -0.8833 0.4179 0.2123
vn -0.9377 0.3394 -0.0750
vn -0.9697 0.1728 -0.1728
vn -0.9377 0.0750 -0.3394
vn -0.9377 -0.0750 -0.3394
vn -0.9697 -0.1728 -0.1728
vn -0.9377 -0.3394 -0.0750
vn -0.8833 -0.4179 0.2123
vn -0.9124 -0.2894 0.2894
vn -0.8833 -0.2123 0.4179
vn -0.8833 0.2123 0.4179
vn -0.4115 0.8132 -0.4115
vn -0.2538 0.9333 0.2538
vn 0.4115 0.8132 -0.4115
vn 0.2538 0.9333 0.2538
vn -0.2894 0.9124 -0.2894
vn -0.4179 0.8833 -0.2123
vn -0.3394 0.9377 0.0750
vn -0.1728 0.9697 0.1728
vn -0.0750 0.9377 0.3394
vn 0.0750 0.9377 0.3394
vn 0.1728 0.9697 0.1728
vn 0.3394 0.9377 0.0750
vn 0.4179 0.8833 -0.2123
vn 0.2894 0.9124 -0.2894
vn 0.2123 0.8833 -0.4179
vn -0.2123 0.8833 -0.4179
s off
f 46//1 48//1 45//1
f 46//2 50//2 49//2
f 48//3 52//3 51//3
f 50//4 52//4 49//4
f 9//5 12//5 1//5
f 10//6 45//6 9//6
f 10//7 47//7 46//7
f 11//8 18//8 47//8
f 47//9 19//9 50//9
f 19//10 53//10 50//10
f 20//11 24//11 53//11
f 53//12 25//12 52//12
f 51//13 25//13 26//13
f 14//14 26//14 4//14
f 13//15 51//15 14//15
f 45//16 13//16 12//16
f 55//17 57//17 54//17
f 55//18 59//18 58//18
f 57//19 61//19 60//19
f 59//20 61//20 58//20
f 36//21 33//21 5//21
f 37//22 54//22 36//22
f 37//23 56//23 55//23
f 38//24 44//24 56//24
f 56//25 43//25 59//25
f 43//26 62//26 59//26
f 42//27 41//27 62//27
f 62//28 40//28 61//28
f 60//29 40//29 39//29
f 35//30 39//30 6//30
f 34//31 60//31 35//31
f 54//32 34//32 33//32
f 64//33 66//33 63//33
f 64//34 68//34 67//34
f 66//35 70//35 69//35
f 68//36 70//36 67//36
f 15//37 9//37 1//37
f 16//38 63//38 15//38
f 16//39 65//39 64//39
f 17//40 33//40 65//40
f 65//41 34//41 68//41
f 34//42 71//42 68//42
f 35//43 23//43 71//43
f 71//44 22//44 70//44
f 69//45 22//45 21//45
f 11//46 21//46 2//46
f 10//47 69//47 11//47
f 63//48 10//48 9//48
f 73//49 75//49 72//49
f 73//50 77//50 76//50
f 75//51 79//51 78//51
f 77//52 79//52 76//52
f 21//53 18//53 2//53
f 22//54 72//54 21//54
f 22//55 74//55 73//55
f 23//56 39//56 74//56
f 74//57 40//57 77//57
f 40//58 80//58 77//58
f 41//59 29//59 80//59
f 80//60 28//60 79//60
f 78//61 28//61 27//61
f 20//62 27//62 3//62
f 19//63 78//63 20//63
f 72//64 19//64 18//64
f 82//65 84//65 81//65
f 82//66 86//66 85//66
f 84//67 88//67 87//67
f 86//68 88//68 85//68
f 27//69 24//69 3//69
f 28//70 81//70 27//70
f 28//71 83//71 82//71
f 29//72 42//72 83//72
f 83//73 43//73 86//73
f 43//74 89//74 86//74
f 44//75 32//75 89//75
f 89//76 31//76 88//76
f 87//77 31//77 30//77
f 26//78 30//78 4//78
f 25//79 87//79 26//79
f 81//80 25//80 24//80
f 91//81 93//81 90//81
f 91//82 95//82 94//82
f 93//83 97//83 96//83
f 95//84 97//84 94//84
f 17//85 36//85 5//85
f 16//86 90//86 17//86
f 16//87 92//87 91//87
f 15//88 12//88 92//88
f 92//89 13//89 95//89
f 13//90 98//90 95//90
f 14//91 30//91 98//91
f 98//92 31//92 97//92
f 96//93 31//93 32//93
f 38//94 32//94 8//94
f 37//95 96//95 38//95
f 90//96 37//96 36//96
f 46//97 49//97 48//97
f 46//98 47//98 50//98
f 48//99 49//99 52//99
f 50//100 53//100 52//100
f 9//101 45//101 12//101
f 10//102 46//102 45//102
f 10//103 11//103 47//103
f 11//104 2//104 18//104
f 47//105 18//105 19//105
f 19//106 20//106 53//106
f 20//107 3//107 24//107
f 53//108 24//108 25//108
f 51//109 52//109 25//109
f 14//110 51//110 26//110
f 13//111 48//111 51//111
f 45//112 48//112 13//112
f 55//113 58//113 57//113
f 55//114 56//114 59//114
f 57//115 58//115 61//115
f 59//116 62//116 61//116
f 36//117 54//117 33//117
f 37//118 55//118 54//118
f 37//119 38//119 56//119
f 38//120 8//120 44//120
f 56//121 44//121 43//121
f 43//122 42//122 62//122
f 42//123 7//123 41//123
f 62//124 41//124 40//124
f 60//125 61//125 40//125
f 35//126 60//126 39//126
f 34//127 57//127 60//127
f 54//128 57//128 34//128
f 64//129 67//129 66//129
f 64//130 65//130 68//130
f 66//131 67//131 70//131
f 68//132 71//132 70//132
f 15//133 63//133 9//133
f 16//134 64//134 63//134
f 16//135 17//135 65//135
f 17//136 5//136 33//136
f 65//137 33//137 34//137
f 34//138 35//138 71//138
f 35//139 6//139 23//139
f 71//140 23//140 22//140
f 69//141 70//141 22//141
f 11//142 69//142 21//142
f 10//143 66//143 69//143
f 63//144 66//144 10//144
f 73//145 76//145 75//145
f 73//146 74//146 77//146
f 75//147 76//147 79//147
f 77//148 80//148 79//148
f 21//149 72//149 18//149
f 22//150 73//150 72//150
f 22//151 23//151 74//151
f 23//152 6//152 39//152
f 74//153 39//153 40//153
f 40//154 41//154 80//154
f 41//155 7//155 29//155
f 80//156 29//156 28//156
f 78//157 79//157 28//157
f 20//158 78//158 27//158
f 19//159 75//159 78//159
f 72//160 75//160 19//160
f 82//161 85//161 84//161
f 82//162 83//162 86//162
f 84//163 85//163 88//163
f 86//164 89//164 88//164
f 27//165 81//165 24//165
f 28//166 82//166 81//166
f 28//167 29//167 83//167
f 29//168 7//168 42//168
f 83//169 42//169 43//169
f 43//170 44//170 89//170
f 44//171 8//171 32//171
f 89//172 32//172 31//172
f 87//173 88//173 31//173
f 26//174 87//174 30//174
f 25//175 84//175 87//175
f 81//176 84//176 25//176
f 91//177 94//177 93//177
f 91//178 92//178 95//178
f 93//179 94//179 97//179
f 95//180 98//180 97//180
f 17//181 90//181 36//181
f 16//182 91//182 90//182
f 16//183 15//183 92//183
f 15//184 1//184 12//184
f 92//185 12//185 13//185
f 13//186 14//186 98//186
f 14//187 4//187 30//187
f 98//188 30//188 31//188
f 96//189 97//189 31//189
f 38//190 96//190 32//190
f 37//191 93//191 96//191
f 90//192 93//192 37//192
