# Blender v2.81 (sub 16) OBJ File: 'shiftcube.blend'
# www.blender.org
o Cube
v 0.527547 0.527547 -0.527547
v 0.527547 -0.527547 -0.527547
v -0.527547 -0.527547 -0.527547
v -0.527547 0.527548 -0.527547
v 0.527548 0.527547 0.527547
v 0.527547 -0.527548 0.527547
v -0.527548 -0.527547 0.527547
v -0.527547 0.527547 0.527547
v 0.759374 0.379687 -0.759374
v 0.864338 -0.000000 -0.864338
v 0.759374 -0.379687 -0.759374
v 0.379687 0.759373 -0.759373
v 0.000000 0.864338 -0.864338
v -0.379687 0.759374 -0.759373
v 0.759374 0.759374 -0.379687
v 0.864338 0.864338 0.000000
v 0.759374 0.759373 0.379687
v 0.379687 -0.759373 -0.759373
v -0.000000 -0.864338 -0.864338
v -0.379687 -0.759373 -0.759373
v 0.759373 -0.759374 -0.379687
v 0.864338 -0.864338 0.000000
v 0.759373 -0.759374 0.379687
v -0.759373 -0.379687 -0.759373
v -0.864338 0.000000 -0.864338
v -0.759373 0.379687 -0.759373
v -0.759374 -0.759373 -0.379687
v -0.864338 -0.864338 0.000000
v -0.759374 -0.759373 0.379687
v -0.759373 0.759374 -0.379687
v -0.864338 0.864338 0.000000
v -0.759373 0.759374 0.379687
v 0.759374 0.379686 0.759373
v 0.864338 -0.000000 0.864338
v 0.759373 -0.379687 0.759374
v 0.379687 0.759373 0.759374
v 0.000000 0.864338 0.864338
v -0.379687 0.759374 0.759374
v 0.379686 -0.759374 0.759373
v -0.000000 -0.864338 0.864338
v -0.379687 -0.759373 0.759373
v -0.759374 -0.379686 0.759373
v -0.864338 0.000000 0.864338
v -0.759373 0.379687 0.759373
v 0.574133 0.574133 -1.148266
v 0.675270 0.000000 -1.350539
v 0.574133 -0.574133 -1.148266
v 0.000000 0.675270 -1.350539
v 0.000000 0.000000 -1.624560
v 0.000000 -0.675270 -1.350539
v -0.574133 0.574133 -1.148266
v -0.675270 0.000000 -1.350540
v -0.574133 -0.574133 -1.148266
v 0.574133 0.574133 1.148266
v 0.000000 0.675270 1.350540
v -0.574133 0.574133 1.148266
v 0.675270 -0.000001 1.350539
v -0.000000 -0.000000 1.624560
v -0.675270 0.000000 1.350539
v 0.574132 -0.574133 1.148266
v -0.000000 -0.675270 1.350539
v -0.574133 -0.574133 1.148266
v 1.148266 0.574133 -0.574133
v 1.350540 0.675269 0.000000
v 1.148266 0.574133 0.574133
v 1.350539 -0.000000 -0.675270
v 1.624560 -0.000000 0.000000
v 1.350539 -0.000001 0.675270
v 1.148266 -0.574133 -0.574133
v 1.350539 -0.675270 0.000000
v 1.148266 -0.574133 0.574133
v 0.574133 -1.148266 -0.574133
v 0.675269 -1.350539 0.000000
v 0.574132 -1.148266 0.574133
v -0.000000 -1.350539 -0.675270
v -0.000000 -1.624560 0.000000
v -0.000001 -1.350539 0.675269
v -0.574133 -1.148266 -0.574133
v -0.675270 -1.350539 0.000000
v -0.574133 -1.148266 0.574133
v -1.148266 -0.574133 -0.574133
v -1.350539 -0.675269 0.000000
v -1.148266 -0.574133 0.574133
v -1.350539 0.000000 -0.675270
v -1.624560 0.000000 0.000000
v -1.350539 0.000000 0.675269
v -1.148266 0.574133 -0.574133
v -1.350539 0.675270 0.000000
v -1.148266 0.574133 0.574133
v 0.574133 1.148266 0.574133
v 0.675270 1.350539 -0.000000
v 0.574133 1.148266 -0.574133
v 0.000000 1.350540 0.675270
v 0.000000 1.624560 -0.000000
v 0.000000 1.350539 -0.675270
v -0.574133 1.148266 0.574133
v -0.675269 1.350539 0.000000
v -0.574133 1.148266 -0.574133
vn 0.3655 0.3500 -0.8625
vn 0.3500 -0.3655 -0.8625
vn -0.3655 0.3500 -0.8625
vn -0.3500 -0.3655 -0.8625
vn 0.6850 0.6850 0.2481
vn 0.9150 0.2676 -0.3020
vn 0.8775 -0.3369 -0.3412
vn 0.7070 -0.7070 0.0167
vn 0.2676 -0.9150 -0.3020
vn -0.2676 -0.9150 -0.3020
vn -0.7070 -0.7070 0.0167
vn -0.8775 -0.3369 -0.3412
vn -0.9150 0.2676 -0.3020
vn -0.6850 0.6850 0.2481
vn -0.3369 0.8775 -0.3412
vn 0.3369 0.8775 -0.3412
vn 0.3500 0.3655 0.8625
vn -0.3655 0.3500 0.8625
vn 0.3500 -0.3655 0.8625
vn -0.3655 -0.3500 0.8625
vn 0.6850 0.6850 -0.2481
vn 0.2676 0.9150 0.3020
vn -0.3369 0.8775 0.3412
vn -0.7070 0.7070 -0.0167
vn -0.9150 0.2676 0.3020
vn -0.9150 -0.2676 0.3020
vn -0.7070 -0.7070 -0.0167
vn -0.3369 -0.8775 0.3412
vn 0.2676 -0.9150 0.3020
vn 0.6850 -0.6850 -0.2481
vn 0.8775 -0.3369 0.3412
vn 0.8775 0.3369 0.3412
vn 0.8625 0.3655 -0.3500
vn 0.8625 0.3500 0.3655
vn 0.8625 -0.3655 -0.3500
vn 0.8625 -0.3500 0.3655
vn -0.2481 0.6850 -0.6850
vn 0.3020 0.9150 -0.2676
vn 0.3412 0.8775 0.3369
vn -0.0167 0.7070 0.7070
vn 0.3020 0.2676 0.9150
vn 0.3020 -0.2676 0.9150
vn -0.0167 -0.7070 0.7070
vn 0.3412 -0.8775 0.3369
vn 0.3020 -0.9150 -0.2676
vn -0.2481 -0.6850 -0.6850
vn 0.3412 -0.3369 -0.8775
vn 0.3412 0.3369 -0.8775
vn 0.3655 -0.8625 -0.3500
vn 0.3500 -0.8625 0.3655
vn -0.3655 -0.8625 -0.3500
vn -0.3500 -0.8625 0.3655
vn 0.6850 0.2481 -0.6850
vn 0.9150 -0.3020 -0.2676
vn 0.8775 -0.3412 0.3369
vn 0.7070 0.0167 0.7070
vn 0.2676 -0.3020 0.9150
vn -0.2676 -0.3020 0.9150
vn -0.7070 0.0167 0.7070
vn -0.8775 -0.3412 0.3369
vn -0.9150 -0.3020 -0.2676
vn -0.6850 0.2481 -0.6850
vn -0.3369 -0.3412 -0.8775
vn 0.3369 -0.3412 -0.8775
vn -0.8625 -0.3655 -0.3500
vn -0.8625 -0.3500 0.3655
vn -0.8625 0.3655 -0.3500
vn -0.8625 0.3500 0.3655
vn 0.2481 -0.6850 -0.6850
vn -0.3020 -0.9150 -0.2676
vn -0.3412 -0.8775 0.3369
vn 0.0167 -0.7070 0.7070
vn -0.3020 -0.2676 0.9150
vn -0.3020 0.2676 0.9150
vn 0.0167 0.7070 0.7070
vn -0.3412 0.8775 0.3369
vn -0.3020 0.9150 -0.2676
vn 0.2481 0.6850 -0.6850
vn -0.3412 0.3369 -0.8775
vn -0.3412 -0.3369 -0.8775
vn 0.3655 0.8625 0.3500
vn 0.3500 0.8625 -0.3655
vn -0.3655 0.8625 0.3500
vn -0.3500 0.8625 -0.3655
vn 0.6850 -0.2481 0.6850
vn 0.9150 0.3020 0.2676
vn 0.8775 0.3412 -0.3369
vn 0.7070 -0.0167 -0.7070
vn 0.2676 0.3020 -0.9150
vn -0.2676 0.3020 -0.9150
vn -0.7070 -0.0167 -0.7070
vn -0.8775 0.3412 -0.3369
vn -0.9150 0.3020 0.2676
vn -0.6850 -0.2481 0.6850
vn -0.3369 0.3412 0.8775
vn 0.3369 0.3412 0.8775
vn 0.3500 0.3655 -0.8625
vn 0.3655 -0.3500 -0.8625
vn -0.3500 0.3655 -0.8625
vn -0.3655 -0.3500 -0.8625
vn 0.7070 0.7070 0.0167
vn 0.8775 0.3369 -0.3412
vn 0.9150 -0.2676 -0.3020
vn 0.6850 -0.6850 0.2481
vn 0.3369 -0.8775 -0.3412
vn -0.3369 -0.8775 -0.3412
vn -0.6850 -0.6850 0.2481
vn -0.9150 -0.2676 -0.3020
vn -0.8775 0.3369 -0.3412
vn -0.7070 0.7070 0.0167
vn -0.2676 0.9150 -0.3020
vn 0.2676 0.9150 -0.3020
vn 0.3655 0.3500 0.8625
vn -0.3500 0.3655 0.8625
vn 0.3655 -0.3500 0.8625
vn -0.3500 -0.3655 0.8625
vn 0.7070 0.7070 -0.0167
vn 0.3369 0.8775 0.3412
vn -0.2676 0.9150 0.3020
vn -0.6850 0.6850 -0.2481
vn -0.8775 0.3369 0.3412
vn -0.8775 -0.3369 0.3412
vn -0.6850 -0.6850 -0.2481
vn -0.2676 -0.9150 0.3020
vn 0.3369 -0.8775 0.3412
vn 0.7070 -0.7070 -0.0167
vn 0.9150 -0.2676 0.3020
vn 0.9150 0.2676 0.3020
vn 0.8625 0.3500 -0.3655
vn 0.8625 0.3655 0.3500
vn 0.8625 -0.3500 -0.3655
vn 0.8625 -0.3655 0.3500
vn -0.0167 0.7070 -0.7070
vn 0.3412 0.8775 -0.3369
vn 0.3020 0.9150 0.2676
vn -0.2481 0.6850 0.6850
vn 0.3412 0.3369 0.8775
vn 0.3412 -0.3369 0.8775
vn -0.2481 -0.6850 0.6850
vn 0.3020 -0.9150 0.2676
vn 0.3412 -0.8775 -0.3369
vn -0.0167 -0.7070 -0.7070
vn 0.3020 -0.2676 -0.9150
vn 0.3020 0.2676 -0.9150
vn 0.3500 -0.8625 -0.3655
vn 0.3655 -0.8625 0.3500
vn -0.3500 -0.8625 -0.3655
vn -0.3655 -0.8625 0.3500
vn 0.7070 0.0167 -0.7070
vn 0.8775 -0.3412 -0.3369
vn 0.9150 -0.3020 0.2676
vn 0.6850 0.2481 0.6850
vn 0.3369 -0.3412 0.8775
vn -0.3369 -0.3412 0.8775
vn -0.6850 0.2481 0.6850
vn -0.9150 -0.3020 0.2676
vn -0.8775 -0.3412 -0.3369
vn -0.7070 0.0167 -0.7070
vn -0.2676 -0.3020 -0.9150
vn 0.2676 -0.3020 -0.9150
vn -0.8625 -0.3500 -0.3655
vn -0.8625 -0.3655 0.3500
vn -0.8625 0.3500 -0.3655
vn -0.8625 0.3655 0.3500
vn 0.0167 -0.7070 -0.7070
vn -0.3412 -0.8775 -0.3369
vn -0.3020 -0.9150 0.2676
vn 0.2481 -0.6850 0.6850
vn -0.3412 -0.3369 0.8775
vn -0.3412 0.3369 0.8775
vn 0.2481 0.6850 0.6850
vn -0.3020 0.9150 0.2676
vn -0.3412 0.8775 -0.3369
vn 0.0167 0.7070 -0.7070
vn -0.3020 0.2676 -0.9150
vn -0.3020 -0.2676 -0.9150
vn 0.3500 0.8625 0.3655
vn 0.3655 0.8625 -0.3500
vn -0.3500 0.8625 0.3655
vn -0.3655 0.8625 -0.3500
vn 0.7070 -0.0167 0.7070
vn 0.8775 0.3412 0.3369
vn 0.9150 0.3020 -0.2676
vn 0.6850 -0.2481 -0.6850
vn 0.3369 0.3412 -0.8775
vn -0.3369 0.3412 -0.8775
vn -0.6850 -0.2481 -0.6850
vn -0.9150 0.3020 -0.2676
vn -0.8775 0.3412 0.3369
vn -0.7070 -0.0167 0.7070
vn -0.2676 0.3020 0.9150
vn 0.2676 0.3020 0.9150
s off
f 45//1 49//1 48//1
f 47//2 49//2 46//2
f 49//3 51//3 48//3
f 49//4 53//4 52//4
f 9//5 12//5 1//5
f 9//6 46//6 45//6
f 11//7 46//7 10//7
f 11//8 18//8 47//8
f 18//9 50//9 47//9
f 50//10 20//10 53//10
f 20//11 24//11 53//11
f 52//12 24//12 25//12
f 52//13 26//13 51//13
f 14//14 26//14 4//14
f 48//15 14//15 13//15
f 12//16 48//16 13//16
f 54//17 58//17 57//17
f 56//18 58//18 55//18
f 58//19 60//19 57//19
f 58//20 62//20 61//20
f 36//21 33//21 5//21
f 36//22 55//22 54//22
f 38//23 55//23 37//23
f 38//24 44//24 56//24
f 44//25 59//25 56//25
f 59//26 42//26 62//26
f 42//27 41//27 62//27
f 61//28 41//28 40//28
f 61//29 39//29 60//29
f 35//30 39//30 6//30
f 57//31 35//31 34//31
f 33//32 57//32 34//32
f 63//33 67//33 66//33
f 65//34 67//34 64//34
f 67//35 69//35 66//35
f 67//36 71//36 70//36
f 15//37 9//37 1//37
f 15//38 64//38 63//38
f 17//39 64//39 16//39
f 17//40 33//40 65//40
f 33//41 68//41 65//41
f 68//42 35//42 71//42
f 35//43 23//43 71//43
f 70//44 23//44 22//44
f 70//45 21//45 69//45
f 11//46 21//46 2//46
f 66//47 11//47 10//47
f 9//48 66//48 10//48
f 72//49 76//49 75//49
f 74//50 76//50 73//50
f 76//51 78//51 75//51
f 76//52 80//52 79//52
f 21//53 18//53 2//53
f 21//54 73//54 72//54
f 23//55 73//55 22//55
f 23//56 39//56 74//56
f 39//57 77//57 74//57
f 77//58 41//58 80//58
f 41//59 29//59 80//59
f 79//60 29//60 28//60
f 79//61 27//61 78//61
f 20//62 27//62 3//62
f 75//63 20//63 19//63
f 18//64 75//64 19//64
f 81//65 85//65 84//65
f 83//66 85//66 82//66
f 85//67 87//67 84//67
f 85//68 89//68 88//68
f 27//69 24//69 3//69
f 27//70 82//70 81//70
f 29//71 82//71 28//71
f 29//72 42//72 83//72
f 42//73 86//73 83//73
f 86//74 44//74 89//74
f 44//75 32//75 89//75
f 88//76 32//76 31//76
f 88//77 30//77 87//77
f 26//78 30//78 4//78
f 84//79 26//79 25//79
f 24//80 84//80 25//80
f 90//81 94//81 93//81
f 92//82 94//82 91//82
f 94//83 96//83 93//83
f 94//84 98//84 97//84
f 17//85 36//85 5//85
f 17//86 91//86 90//86
f 15//87 91//87 16//87
f 15//88 12//88 92//88
f 12//89 95//89 92//89
f 95//90 14//90 98//90
f 14//91 30//91 98//91
f 97//92 30//92 31//92
f 97//93 32//93 96//93
f 38//94 32//94 8//94
f 93//95 38//95 37//95
f 36//96 93//96 37//96
f 45//97 46//97 49//97
f 47//98 50//98 49//98
f 49//99 52//99 51//99
f 49//100 50//100 53//100
f 9//101 45//101 12//101
f 9//102 10//102 46//102
f 11//103 47//103 46//103
f 11//104 2//104 18//104
f 18//105 19//105 50//105
f 50//106 19//106 20//106
f 20//107 3//107 24//107
f 52//108 53//108 24//108
f 52//109 25//109 26//109
f 14//110 51//110 26//110
f 48//111 51//111 14//111
f 12//112 45//112 48//112
f 54//113 55//113 58//113
f 56//114 59//114 58//114
f 58//115 61//115 60//115
f 58//116 59//116 62//116
f 36//117 54//117 33//117
f 36//118 37//118 55//118
f 38//119 56//119 55//119
f 38//120 8//120 44//120
f 44//121 43//121 59//121
f 59//122 43//122 42//122
f 42//123 7//123 41//123
f 61//124 62//124 41//124
f 61//125 40//125 39//125
f 35//126 60//126 39//126
f 57//127 60//127 35//127
f 33//128 54//128 57//128
f 63//129 64//129 67//129
f 65//130 68//130 67//130
f 67//131 70//131 69//131
f 67//132 68//132 71//132
f 15//133 63//133 9//133
f 15//134 16//134 64//134
f 17//135 65//135 64//135
f 17//136 5//136 33//136
f 33//137 34//137 68//137
f 68//138 34//138 35//138
f 35//139 6//139 23//139
f 70//140 71//140 23//140
f 70//141 22//141 21//141
f 11//142 69//142 21//142
f 66//143 69//143 11//143
f 9//144 63//144 66//144
f 72//145 73//145 76//145
f 74//146 77//146 76//146
f 76//147 79//147 78//147
f 76//148 77//148 80//148
f 21//149 72//149 18//149
f 21//150 22//150 73//150
f 23//151 74//151 73//151
f 23//152 6//152 39//152
f 39//153 40//153 77//153
f 77//154 40//154 41//154
f 41//155 7//155 29//155
f 79//156 80//156 29//156
f 79//157 28//157 27//157
f 20//158 78//158 27//158
f 75//159 78//159 20//159
f 18//160 72//160 75//160
f 81//161 82//161 85//161
f 83//162 86//162 85//162
f 85//163 88//163 87//163
f 85//164 86//164 89//164
f 27//165 81//165 24//165
f 27//166 28//166 82//166
f 29//167 83//167 82//167
f 29//168 7//168 42//168
f 42//169 43//169 86//169
f 86//170 43//170 44//170
f 44//171 8//171 32//171
f 88//172 89//172 32//172
f 88//173 31//173 30//173
f 26//174 87//174 30//174
f 84//175 87//175 26//175
f 24//176 81//176 84//176
f 90//177 91//177 94//177
f 92//178 95//178 94//178
f 94//179 97//179 96//179
f 94//180 95//180 98//180
f 17//181 90//181 36//181
f 17//182 16//182 91//182
f 15//183 92//183 91//183
f 15//184 1//184 12//184
f 12//185 13//185 95//185
f 95//186 13//186 14//186
f 14//187 4//187 30//187
f 97//188 98//188 30//188
f 97//189 31//189 32//189
f 38//190 96//190 32//190
f 93//191 96//191 38//191
f 36//192 90//192 93//192
