# Blender v2.81 (sub 16) OBJ File: 'party-parrot.blend'
# www.blender.org
o Body
v -0.268439 -0.529744 0.548399
v -0.558412 -1.401793 1.034530
v -1.137236 1.811353 -0.269268
v -1.526499 0.283521 -0.582358
v -0.883309 1.033182 -1.755175
v 0.673018 2.108286 -0.709763
v -0.343684 0.253186 1.974158
v 1.723288 -0.548103 0.970469
v 0.057654 -1.161338 2.782334
v 0.572825 0.315586 2.858060
v 1.614548 -1.454188 1.757734
v 2.168051 0.901907 -0.606412
v 0.497928 -0.052106 -1.407957
vn -0.9048 0.2937 -0.3084
vn -0.8976 0.1432 0.4170
vn 0.5072 -0.2196 0.8334
vn 0.8731 0.2559 0.4151
vn -0.2842 -0.8998 -0.3310
vn 0.1721 -0.5227 -0.8350
vn -0.9376 -0.0716 0.3403
vn 0.0382 -0.9741 -0.2228
vn -0.6868 0.2038 0.6977
vn -0.3715 -0.6763 -0.6361
vn -0.2549 0.8380 -0.4824
vn -0.6987 -0.6420 0.3157
vn -0.9594 0.2226 -0.1729
vn -0.6035 0.5388 0.5877
vn 0.5957 -0.6679 -0.4462
vn 0.2245 -0.6543 -0.7221
vn -0.0779 -0.9836 0.1628
vn 0.3539 0.1553 -0.9223
vn 0.3431 0.3506 -0.8714
vn -0.0376 0.8933 0.4478
vn 0.8746 0.2080 0.4379
vn 0.5638 0.7315 0.3834
s off
f 4//1 3//1 5//1
f 4//2 7//2 3//2
f 9//3 11//3 10//3
f 11//4 8//4 10//4
f 4//5 13//5 1//5
f 1//6 8//6 2//6
f 7//7 2//7 9//7
f 1//8 13//8 8//8
f 10//9 7//9 9//9
f 5//10 13//10 4//10
f 3//11 6//11 5//11
f 7//12 4//12 1//12
f 1//13 2//13 7//13
f 7//14 10//14 3//14
f 12//15 8//15 13//15
f 11//16 2//16 8//16
f 2//17 11//17 9//17
f 12//18 13//18 5//18
f 6//19 12//19 5//19
f 3//20 10//20 6//20
f 10//21 8//21 12//21
f 6//22 10//22 12//22
o Beak
v 0.036790 -1.554124 1.923145
v 0.656816 -1.184692 1.560809
v 0.167748 -1.614696 2.284628
v 0.722344 -1.611805 2.135517
v 0.413869 -1.947657 1.755443
v 0.665195 -1.837668 1.354893
v 0.166313 -1.008606 2.013402
v 0.352209 -1.352426 2.416841
v 0.434304 -1.751564 1.267985
v 0.568356 -1.060270 2.240237
vn -0.4557 0.5432 -0.7052
vn 0.1595 -0.8004 0.5778
vn -0.6878 -0.7142 0.1295
vn 0.6146 0.0219 0.7885
vn -0.9195 0.1588 0.3597
vn 0.2183 -0.5574 0.8011
vn -0.7765 0.2558 0.5758
vn 0.4272 0.2769 -0.8607
vn 0.9957 0.0394 -0.0843
vn 0.6171 -0.7668 0.1767
vn -0.1977 -0.9065 -0.3730
vn -0.7501 -0.6021 -0.2737
vn 0.9639 0.2541 0.0790
vn -0.7818 0.2780 -0.5581
vn -0.3089 0.6489 0.6953
vn 0.2087 0.9664 -0.1498
s off
f 15//23 22//23 20//23
f 17//24 16//24 18//24
f 18//25 16//25 14//25
f 21//26 17//26 23//26
f 16//27 20//27 14//27
f 21//28 16//28 17//28
f 20//29 16//29 21//29
f 22//30 15//30 19//30
f 19//31 15//31 17//31
f 17//32 18//32 19//32
f 19//33 18//33 22//33
f 14//34 22//34 18//34
f 17//35 15//35 23//35
f 14//36 20//36 22//36
f 23//37 20//37 21//37
f 15//38 20//38 23//38
o Eyes
v 0.729892 -0.838333 2.514571
v 0.599566 -1.177849 2.373998
v 0.762486 -1.414103 2.542531
v 0.988411 -1.108922 2.481505
v 0.866442 -1.251087 2.169960
v -0.115100 -0.838333 2.323650
v 0.063004 -1.177849 2.252765
v -0.156548 -1.414103 2.334880
v -0.334290 -1.108922 2.182648
v -0.090223 -1.251087 1.953807
vn 0.7993 -0.5996 -0.0393
vn 0.1863 0.0582 0.9808
vn -0.3091 0.6243 -0.7175
vn 0.7256 0.4830 -0.4902
vn -0.5899 0.0582 0.8054
vn 0.3574 -0.0075 0.9339
vn 0.5875 0.6243 -0.5149
vn -0.5438 -0.7025 -0.4591
vn -0.4443 0.4830 -0.7545
vn -0.7242 -0.0075 0.6895
vn -0.7048 -0.5996 -0.3792
vn 0.6884 -0.7025 -0.1807
s off
f 28//39 27//39 26//39
f 24//40 26//40 27//40
f 32//41 29//41 33//41
f 33//42 29//42 30//42
f 31//43 29//43 32//43
f 29//44 31//44 30//44
f 27//45 28//45 24//45
f 26//46 25//46 28//46
f 28//47 25//47 24//47
f 24//48 25//48 26//48
f 33//49 31//49 32//49
f 33//50 30//50 31//50
