# Blender v2.81 (sub 16) OBJ File: 'party-parrot.blend'
# www.blender.org
o Body
v -0.962316 -0.529744 0.680855
v -1.149660 -1.401793 1.223964
v -1.231556 1.811353 -0.251467
v -1.725264 0.283521 -0.527079
v -0.993450 1.033182 -1.747796
v 0.586196 2.108286 -0.731230
v -0.731311 0.253186 2.092149
v 1.071475 -0.548103 0.660759
v -0.163551 -1.161338 2.793023
v 0.356532 0.315586 2.753546
v 1.129252 -1.454188 1.450494
v 2.006324 0.901907 -0.702363
v 0.345583 -0.052106 -1.435466
vn -0.8835 0.3430 -0.3190
vn -0.9088 0.2310 0.3475
vn 0.6782 -0.2201 0.7011
vn 0.9430 0.2507 0.2187
vn -0.3108 -0.8677 -0.3879
vn -0.0132 -0.5266 -0.8500
vn -0.8397 -0.0702 0.5385
vn -0.0110 -0.9739 -0.2266
vn -0.5171 0.2043 0.8312
vn -0.3882 -0.6631 -0.6400
vn -0.2630 0.8382 -0.4778
vn -0.8819 -0.3360 0.3308
vn -0.9729 0.2290 0.0322
vn -0.3862 0.7280 0.5665
vn 0.5804 -0.7242 -0.3723
vn 0.0600 -0.6537 -0.7544
vn -0.0401 -0.9836 0.1759
vn 0.3313 0.1403 -0.9330
vn 0.3213 0.3572 -0.8770
vn -0.0250 0.8896 0.4560
vn 0.8958 -0.2088 0.3922
vn 0.5886 0.7025 0.4002
s off
f 4//1 3//1 5//1
f 4//2 7//2 3//2
f 9//3 11//3 10//3
f 11//4 8//4 10//4
f 4//5 13//5 1//5
f 1//6 8//6 2//6
f 7//7 2//7 9//7
f 1//8 13//8 8//8
f 10//9 7//9 9//9
f 5//10 13//10 4//10
f 3//11 6//11 5//11
f 7//12 4//12 1//12
f 1//13 2//13 7//13
f 7//14 10//14 3//14
f 12//15 8//15 13//15
f 11//16 2//16 8//16
f 2//17 11//17 9//17
f 12//18 13//18 5//18
f 6//19 12//19 5//19
f 3//20 10//20 6//20
f 10//21 8//21 12//21
f 6//22 10//22 12//22
o Beak
v -0.373257 -1.554124 1.959558
v 0.151668 -1.184692 1.469484
v -0.165853 -1.614696 2.283291
v 0.342244 -1.611805 2.015620
v -0.042410 -1.947657 1.712875
v 0.114460 -1.837668 1.266785
v -0.227028 -1.008606 2.019050
v 0.043211 -1.352426 2.371601
v -0.129907 -1.751564 1.232899
v 0.215122 -1.060270 2.151702
vn -0.5999 0.5432 -0.5874
vn 0.2829 -0.8004 0.5285
vn -0.6424 -0.7142 0.2779
vn 0.7733 0.0219 0.6336
vn -0.8176 0.1588 0.5535
vn 0.3895 -0.5574 0.7333
vn -0.6305 0.2558 0.7328
vn 0.2270 0.2769 -0.9337
vn 0.9526 0.0394 -0.3016
vn 0.6409 -0.7668 0.0363
vn -0.2750 -0.9065 -0.3202
vn -0.7919 -0.6021 -0.1016
vn 0.9576 0.2541 -0.1354
vn -0.8856 0.2780 -0.3721
vn -0.1481 0.6489 0.7463
vn 0.1706 0.9664 -0.1921
s off
f 15//23 22//23 20//23
f 17//24 16//24 18//24
f 18//25 16//25 14//25
f 21//26 17//26 23//26
f 16//27 20//27 14//27
f 21//28 16//28 17//28
f 20//29 16//29 21//29
f 22//30 15//30 19//30
f 19//31 15//31 17//31
f 17//32 18//32 19//32
f 19//33 18//33 22//33
f 14//34 22//34 18//34
f 17//35 15//35 23//35
f 14//36 20//36 22//36
f 23//37 20//37 21//37
f 15//38 20//38 23//38
o Eyes
v 0.433146 -0.838333 2.383691
v 0.275043 -1.177849 2.275296
v 0.471100 -1.414103 2.403779
v 0.678021 -1.108922 2.294462
v 0.490390 -1.251087 2.017458
v -0.433146 -0.838333 2.383691
v -0.275043 -1.177849 2.275296
v -0.471100 -1.414103 2.403779
v -0.678022 -1.108922 2.294462
v -0.490390 -1.251087 2.017458
vn 0.7710 -0.5996 -0.2145
vn 0.3979 0.0582 0.9156
vn -0.4596 0.6243 -0.6317
vn 0.5997 0.4830 -0.6381
vn -0.3979 0.0582 0.9156
vn 0.5544 -0.0075 0.8322
vn 0.4596 0.6243 -0.6317
vn -0.6316 -0.7025 -0.3280
vn -0.5997 0.4830 -0.6381
vn -0.5544 -0.0075 0.8322
vn -0.7710 -0.5996 -0.2145
vn 0.6316 -0.7025 -0.3280
s off
f 28//39 27//39 26//39
f 24//40 26//40 27//40
f 32//41 29//41 33//41
f 33//42 29//42 30//42
f 31//43 29//43 32//43
f 29//44 31//44 30//44
f 27//45 28//45 24//45
f 26//46 25//46 28//46
f 28//47 25//47 24//47
f 24//48 25//48 26//48
f 33//49 31//49 32//49
f 33//50 30//50 31//50
