# Blender v2.81 (sub 16) OBJ File: 'party-parrot.blend'
# www.blender.org
o Body
v -1.609697 -0.529744 0.965162
v -1.684372 -1.401793 1.541268
v -1.319608 1.811353 -0.213086
v -1.906909 0.283521 -0.428904
v -1.099236 1.033182 -1.716127
v 0.496800 2.108286 -0.732836
v -1.083157 0.253186 2.294879
v 0.367676 -0.548102 0.504511
v -0.376713 -1.161338 2.854424
v 0.122770 0.315586 2.701485
v 0.588424 -1.454188 1.259986
v 1.827469 0.901907 -0.759926
v 0.190955 -0.052106 -1.428425
vn -0.8671 0.3790 -0.3233
vn -0.9090 0.3101 0.2784
vn 0.8159 -0.2206 0.5344
vn 0.9693 0.2457 0.0115
vn -0.3352 -0.8431 -0.4204
vn -0.1973 -0.5286 -0.8257
vn -0.7006 -0.0689 0.7103
vn -0.0655 -0.9680 -0.2424
vn -0.3222 0.2047 0.9243
vn -0.4081 -0.6540 -0.6370
vn -0.2724 0.8376 -0.4736
vn -0.9463 0.1476 0.2878
vn -0.9431 0.2358 0.2346
vn -0.2210 0.8189 0.5296
vn 0.5624 -0.7871 -0.2534
vn -0.1079 -0.6520 -0.7505
vn -0.0003 -0.9836 0.1804
vn 0.3132 0.1227 -0.9417
vn 0.3046 0.3558 -0.8835
vn -0.0129 0.8870 0.4616
vn 0.7902 -0.5352 0.2985
vn 0.6153 0.6693 0.4164
s off
f 4//1 3//1 5//1
f 4//2 7//2 3//2
f 9//3 11//3 10//3
f 11//4 8//4 10//4
f 4//5 13//5 1//5
f 1//6 8//6 2//6
f 7//7 2//7 9//7
f 1//8 13//8 8//8
f 10//9 7//9 9//9
f 5//10 13//10 4//10
f 3//11 6//11 5//11
f 7//12 4//12 1//12
f 1//13 2//13 7//13
f 7//14 10//14 3//14
f 12//15 8//15 13//15
f 11//16 2//16 8//16
f 2//17 11//17 9//17
f 12//18 13//18 5//18
f 6//19 12//19 5//19
f 3//20 10//20 6//20
f 10//21 8//21 12//21
f 6//22 10//22 12//22
o Beak
v -0.764950 -1.554124 2.087668
v -0.360938 -1.184692 1.493957
v -0.491298 -1.614696 2.357732
v -0.054685 -1.611805 1.984664
v -0.496604 -1.947657 1.774136
v -0.441903 -1.837668 1.304442
v -0.609204 -1.008606 2.113471
v -0.267912 -1.352426 2.397795
v -0.687730 -1.751564 1.325245
v -0.148691 -1.060270 2.145416
vn -0.7146 0.5432 -0.4408
vn 0.3925 -0.8004 0.4531
vn -0.5653 -0.7142 0.4126
vn 0.8939 0.0219 0.4476
vn -0.6755 0.1588 0.7201
vn 0.5415 -0.5574 0.6294
vn -0.4535 0.2558 0.8537
vn 0.0157 0.2769 -0.9608
vn 0.8627 0.0394 -0.5042
vn 0.6331 -0.7668 -0.1058
vn -0.3388 -0.9065 -0.2517
vn -0.7949 -0.6021 0.0754
vn 0.9042 0.2541 -0.3431
vn -0.9458 0.2780 -0.1678
vn 0.0200 0.6489 0.7606
vn 0.1240 0.9664 -0.2250
s off
f 15//23 22//23 20//23
f 17//24 16//24 18//24
f 18//25 16//25 14//25
f 21//26 17//26 23//26
f 16//27 20//27 14//27
f 21//28 16//28 17//28
f 20//29 16//29 21//29
f 22//30 15//30 19//30
f 19//31 15//31 17//31
f 17//32 18//32 19//32
f 19//33 18//33 22//33
f 14//34 22//34 18//34
f 17//35 15//35 23//35
f 14//36 20//36 22//36
f 23//37 20//37 21//37
f 15//38 20//38 23//38
o Eyes
v 0.115100 -0.838333 2.323650
v -0.063004 -1.177849 2.252765
v 0.156548 -1.414103 2.334880
v 0.334289 -1.108922 2.182648
v 0.090223 -1.251087 1.953807
v -0.729892 -0.838333 2.514571
v -0.599566 -1.177849 2.373998
v -0.762486 -1.414103 2.542531
v -0.988411 -1.108922 2.481505
v -0.866442 -1.251087 2.169960
vn 0.7048 -0.5996 -0.3792
vn 0.5899 0.0582 0.8054
vn -0.5875 0.6243 -0.5149
vn 0.4443 0.4830 -0.7545
vn -0.1863 0.0582 0.9808
vn 0.7242 -0.0075 0.6895
vn 0.3091 0.6243 -0.7175
vn -0.6884 -0.7025 -0.1807
vn -0.7256 0.4830 -0.4902
vn -0.3574 -0.0075 0.9339
vn -0.7993 -0.5996 -0.0393
vn 0.5438 -0.7025 -0.4591
s off
f 28//39 27//39 26//39
f 24//40 26//40 27//40
f 32//41 29//41 33//41
f 33//42 29//42 30//42
f 31//43 29//43 32//43
f 29//44 31//44 30//44
f 27//45 28//45 24//45
f 26//46 25//46 28//46
f 28//47 25//47 24//47
f 24//48 25//48 26//48
f 33//49 31//49 32//49
f 33//50 30//50 31//50
