# Blender v2.81 (sub 16) OBJ File: 'party-parrot.blend'
# www.blender.org
o Body
v -1.305738 -0.529744 0.807684
v -1.435360 -1.401793 1.371033
v -1.278296 1.811353 -0.234271
v -1.822229 0.283521 -0.481685
v -1.049249 1.033182 -1.734539
v 0.539848 2.108286 -0.734829
v -0.918702 0.253186 2.184703
v 0.710937 -0.548102 0.556813
v -0.274863 -1.161338 2.815885
v 0.237649 0.315586 2.716820
v 0.854467 -1.454188 1.333206
v 1.915097 0.901907 -0.737824
v 0.265117 -0.052106 -1.436521
vn -0.8742 0.3634 -0.3220
vn -0.9100 0.2735 0.3115
vn 0.7545 -0.2204 0.6182
vn 0.9623 0.2481 0.1116
vn -0.3240 -0.8533 -0.4084
vn -0.1096 -0.5278 -0.8423
vn -0.7721 -0.0695 0.6317
vn -0.0379 -0.9717 -0.2333
vn -0.4183 0.2045 0.8850
vn -0.3982 -0.6578 -0.6393
vn -0.2678 0.8380 -0.4755
vn -0.9432 -0.0940 0.3186
vn -0.9627 0.2325 0.1384
vn -0.2945 0.7829 0.5481
vn 0.5717 -0.7571 -0.3162
vn -0.0274 -0.6529 -0.7569
vn -0.0195 -0.9836 0.1794
vn 0.3212 0.1314 -0.9379
vn 0.3118 0.3576 -0.8803
vn -0.0185 0.8880 0.4596
vn 0.8501 -0.3977 0.3453
vn 0.6023 0.6856 0.4088
s off
f 4//1 3//1 5//1
f 4//2 7//2 3//2
f 9//3 11//3 10//3
f 11//4 8//4 10//4
f 4//5 13//5 1//5
f 1//6 8//6 2//6
f 7//7 2//7 9//7
f 1//8 13//8 8//8
f 10//9 7//9 9//9
f 5//10 13//10 4//10
f 3//11 6//11 5//11
f 7//12 4//12 1//12
f 1//13 2//13 7//13
f 7//14 10//14 3//14
f 12//15 8//15 13//15
f 11//16 2//16 8//16
f 2//17 11//17 9//17
f 12//18 13//18 5//18
f 6//19 12//19 5//19
f 3//20 10//20 6//20
f 10//21 8//21 12//21
f 6//22 10//22 12//22
o Beak
v -0.579300 -1.554124 2.012170
v -0.114402 -1.184692 1.464822
v -0.335941 -1.614696 2.309821
v 0.137893 -1.611805 1.985333
v -0.279113 -1.947657 1.728974
v -0.174741 -1.837668 1.267767
v -0.427185 -1.008606 2.054399
v -0.118087 -1.352426 2.373428
v -0.421386 -1.751564 1.262293
v 0.027314 -1.060270 2.135168
vn -0.6637 0.5432 -0.5143
vn 0.3420 -0.8004 0.4923
vn -0.6060 -0.7142 0.3501
vn 0.8412 0.0219 0.5402
vn -0.7483 0.1588 0.6441
vn 0.4714 -0.5574 0.6835
vn -0.5418 0.2558 0.8006
vn 0.1178 0.2769 -0.9536
vn 0.9115 0.0394 -0.4095
vn 0.6408 -0.7668 -0.0378
vn -0.3101 -0.9065 -0.2864
vn -0.7984 -0.6021 -0.0096
vn 0.9356 0.2541 -0.2450
vn -0.9226 0.2780 -0.2675
vn -0.0610 0.6489 0.7584
vn 0.1473 0.9664 -0.2105
s off
f 15//23 22//23 20//23
f 17//24 16//24 18//24
f 18//25 16//25 14//25
f 21//26 17//26 23//26
f 16//27 20//27 14//27
f 21//28 16//28 17//28
f 20//29 16//29 21//29
f 22//30 15//30 19//30
f 19//31 15//31 17//31
f 17//32 18//32 19//32
f 19//33 18//33 22//33
f 14//34 22//34 18//34
f 17//35 15//35 23//35
f 14//36 20//36 22//36
f 23//37 20//37 21//37
f 15//38 20//38 23//38
o Eyes
v 0.270640 -0.838333 2.340462
v 0.101091 -1.177849 2.251027
v 0.310658 -1.414103 2.356039
v 0.503590 -1.108922 2.223586
v 0.285261 -1.251087 1.970071
v -0.589870 -0.838333 2.440379
v -0.445325 -1.177849 2.314473
v -0.625254 -1.414103 2.464711
v -0.843403 -1.108922 2.379990
v -0.688973 -1.251087 2.083193
vn 0.7411 -0.5996 -0.3020
vn 0.5008 0.0582 0.8636
vn -0.5294 0.6243 -0.5745
vn 0.5221 0.4830 -0.7030
vn -0.2896 0.0582 0.9554
vn 0.6467 -0.0075 0.7627
vn 0.3837 0.6243 -0.6805
vn -0.6652 -0.7025 -0.2529
vn -0.6693 0.4830 -0.5646
vn -0.4547 -0.0075 0.8906
vn -0.7906 -0.5996 -0.1242
vn 0.5896 -0.7025 -0.3986
s off
f 28//39 27//39 26//39
f 24//40 26//40 27//40
f 32//41 29//41 33//41
f 33//42 29//42 30//42
f 31//43 29//43 32//43
f 29//44 31//44 30//44
f 27//45 28//45 24//45
f 26//46 25//46 28//46
f 28//47 25//47 24//47
f 24//48 25//48 26//48
f 33//49 31//49 32//49
f 33//50 30//50 31//50
